<mxfile host="app.diagrams.net" modified="2024-06-03T18:51:11.562Z" agent="Mozilla/5.0 (Windows NT 10.0; Win64; x64) AppleWebKit/537.36 (KHTML, like Gecko) Chrome/124.0.0.0 Safari/537.36 AVG/124.0.0.0" etag="cycdhdmICA_u9ljo7O4v" version="24.4.13" type="github">
  <diagram name="Página-1" id="CXXNplMT2chMt9bO6Q8z">
    <mxGraphModel dx="1018" dy="480" grid="1" gridSize="10" guides="1" tooltips="1" connect="1" arrows="1" fold="1" page="1" pageScale="1" pageWidth="827" pageHeight="1169" math="0" shadow="0">
      <root>
        <mxCell id="0" />
        <mxCell id="1" parent="0" />
        <mxCell id="fuUNGOUVX03Lq7VuXDxl-13" style="rounded=0;orthogonalLoop=1;jettySize=auto;html=1;entryX=0;entryY=0.5;entryDx=0;entryDy=0;" parent="1" source="fuUNGOUVX03Lq7VuXDxl-2" target="fuUNGOUVX03Lq7VuXDxl-6" edge="1">
          <mxGeometry relative="1" as="geometry" />
        </mxCell>
        <mxCell id="fuUNGOUVX03Lq7VuXDxl-25" style="edgeStyle=orthogonalEdgeStyle;rounded=0;orthogonalLoop=1;jettySize=auto;html=1;entryX=0;entryY=0.5;entryDx=0;entryDy=0;" parent="1" source="fuUNGOUVX03Lq7VuXDxl-2" target="fuUNGOUVX03Lq7VuXDxl-24" edge="1">
          <mxGeometry relative="1" as="geometry">
            <mxPoint x="-110.06" y="325" as="sourcePoint" />
            <Array as="points">
              <mxPoint x="109.94" y="335" />
              <mxPoint x="109.94" y="210" />
            </Array>
          </mxGeometry>
        </mxCell>
        <mxCell id="fuUNGOUVX03Lq7VuXDxl-2" value="&lt;div&gt;Usuário&lt;/div&gt;" style="shape=umlActor;verticalLabelPosition=bottom;verticalAlign=top;html=1;outlineConnect=0;" parent="1" vertex="1">
          <mxGeometry x="169.94" y="305" width="30" height="60" as="geometry" />
        </mxCell>
        <mxCell id="fuUNGOUVX03Lq7VuXDxl-17" style="rounded=0;orthogonalLoop=1;jettySize=auto;html=1;" parent="1" source="fuUNGOUVX03Lq7VuXDxl-5" target="fuUNGOUVX03Lq7VuXDxl-7" edge="1">
          <mxGeometry relative="1" as="geometry">
            <Array as="points">
              <mxPoint x="164.94" y="585" />
              <mxPoint x="633.94" y="585" />
            </Array>
          </mxGeometry>
        </mxCell>
        <mxCell id="fuUNGOUVX03Lq7VuXDxl-5" value="&lt;div&gt;Organizador&lt;/div&gt;" style="shape=umlActor;verticalLabelPosition=bottom;verticalAlign=top;html=1;outlineConnect=0;" parent="1" vertex="1">
          <mxGeometry x="149.94" y="485" width="30" height="60" as="geometry" />
        </mxCell>
        <mxCell id="fuUNGOUVX03Lq7VuXDxl-14" style="rounded=0;orthogonalLoop=1;jettySize=auto;html=1;entryX=0.5;entryY=1;entryDx=0;entryDy=0;dashed=1;dashPattern=1 4;" parent="1" source="fuUNGOUVX03Lq7VuXDxl-6" target="fuUNGOUVX03Lq7VuXDxl-8" edge="1">
          <mxGeometry relative="1" as="geometry" />
        </mxCell>
        <mxCell id="fuUNGOUVX03Lq7VuXDxl-6" value="Pesquisar Locais" style="ellipse;whiteSpace=wrap;html=1;" parent="1" vertex="1">
          <mxGeometry x="269.94" y="305" width="80" height="50" as="geometry" />
        </mxCell>
        <mxCell id="EATOOGlveNQWPZ2u_C5z-16" style="rounded=0;orthogonalLoop=1;jettySize=auto;html=1;entryX=0.5;entryY=1;entryDx=0;entryDy=0;dashed=1;dashPattern=1 4;" edge="1" parent="1" source="fuUNGOUVX03Lq7VuXDxl-7" target="EATOOGlveNQWPZ2u_C5z-14">
          <mxGeometry relative="1" as="geometry" />
        </mxCell>
        <mxCell id="EATOOGlveNQWPZ2u_C5z-17" style="rounded=0;orthogonalLoop=1;jettySize=auto;html=1;startArrow=none;startFill=0;dashed=1;dashPattern=1 4;" edge="1" parent="1" source="fuUNGOUVX03Lq7VuXDxl-7" target="EATOOGlveNQWPZ2u_C5z-15">
          <mxGeometry relative="1" as="geometry" />
        </mxCell>
        <mxCell id="fuUNGOUVX03Lq7VuXDxl-7" value="Cadastrar Locais" style="ellipse;whiteSpace=wrap;html=1;" parent="1" vertex="1">
          <mxGeometry x="593.94" y="295" width="80" height="50" as="geometry" />
        </mxCell>
        <mxCell id="fuUNGOUVX03Lq7VuXDxl-8" value="Calcular Rotas" style="ellipse;whiteSpace=wrap;html=1;" parent="1" vertex="1">
          <mxGeometry x="259.94" y="223" width="80" height="50" as="geometry" />
        </mxCell>
        <mxCell id="fuUNGOUVX03Lq7VuXDxl-10" style="edgeStyle=orthogonalEdgeStyle;rounded=0;orthogonalLoop=1;jettySize=auto;html=1;entryX=1.012;entryY=0.317;entryDx=0;entryDy=0;entryPerimeter=0;dashed=1;dashPattern=1 4;exitX=0;exitY=0.5;exitDx=0;exitDy=0;" parent="1" source="fuUNGOUVX03Lq7VuXDxl-7" target="fuUNGOUVX03Lq7VuXDxl-6" edge="1">
          <mxGeometry relative="1" as="geometry">
            <mxPoint x="449.94" y="320" as="sourcePoint" />
          </mxGeometry>
        </mxCell>
        <mxCell id="fuUNGOUVX03Lq7VuXDxl-15" value="&lt;font style=&quot;font-size: 10px;&quot;&gt;&amp;lt;&amp;lt;inclui&amp;gt;&amp;gt;&lt;/font&gt;" style="text;html=1;align=center;verticalAlign=middle;resizable=0;points=[];autosize=1;strokeColor=none;fillColor=none;" parent="1" vertex="1">
          <mxGeometry x="299.94" y="273" width="70" height="30" as="geometry" />
        </mxCell>
        <mxCell id="fuUNGOUVX03Lq7VuXDxl-16" value="&lt;font style=&quot;font-size: 10px;&quot;&gt;&amp;lt;&amp;lt;&lt;/font&gt;&lt;span style=&quot;font-size: 10px; background-color: initial;&quot;&gt;extends&amp;gt;&amp;gt;&lt;/span&gt;" style="text;html=1;align=center;verticalAlign=middle;resizable=0;points=[];autosize=1;strokeColor=none;fillColor=none;" parent="1" vertex="1">
          <mxGeometry x="429.94" y="295" width="80" height="30" as="geometry" />
        </mxCell>
        <mxCell id="fuUNGOUVX03Lq7VuXDxl-20" value="Consultar informações" style="ellipse;whiteSpace=wrap;html=1;" parent="1" vertex="1">
          <mxGeometry x="269.94" y="375" width="80" height="50" as="geometry" />
        </mxCell>
        <mxCell id="fuUNGOUVX03Lq7VuXDxl-22" style="rounded=0;orthogonalLoop=1;jettySize=auto;html=1;entryX=0.038;entryY=0.34;entryDx=0;entryDy=0;entryPerimeter=0;" parent="1" source="fuUNGOUVX03Lq7VuXDxl-2" target="fuUNGOUVX03Lq7VuXDxl-20" edge="1">
          <mxGeometry relative="1" as="geometry" />
        </mxCell>
        <mxCell id="fuUNGOUVX03Lq7VuXDxl-23" value="Avaliar ponto tur&lt;span style=&quot;background-color: initial;&quot;&gt;ístico&lt;/span&gt;" style="ellipse;whiteSpace=wrap;html=1;" parent="1" vertex="1">
          <mxGeometry x="309.94" y="465" width="80" height="50" as="geometry" />
        </mxCell>
        <mxCell id="fuUNGOUVX03Lq7VuXDxl-24" value="Enviar informações" style="ellipse;whiteSpace=wrap;html=1;" parent="1" vertex="1">
          <mxGeometry x="144.94" y="185" width="80" height="50" as="geometry" />
        </mxCell>
        <mxCell id="fuUNGOUVX03Lq7VuXDxl-36" style="rounded=0;orthogonalLoop=1;jettySize=auto;html=1;entryX=0;entryY=0.5;entryDx=0;entryDy=0;" parent="1" source="fuUNGOUVX03Lq7VuXDxl-31" target="fuUNGOUVX03Lq7VuXDxl-23" edge="1">
          <mxGeometry relative="1" as="geometry" />
        </mxCell>
        <mxCell id="fuUNGOUVX03Lq7VuXDxl-31" value="Turista&lt;div&gt;&lt;br&gt;&lt;/div&gt;" style="shape=umlActor;verticalLabelPosition=bottom;verticalAlign=top;html=1;outlineConnect=0;" parent="1" vertex="1">
          <mxGeometry x="219.94" y="455" width="30" height="60" as="geometry" />
        </mxCell>
        <mxCell id="fuUNGOUVX03Lq7VuXDxl-35" value="" style="shape=flexArrow;endArrow=classic;html=1;rounded=0;width=0.4;endSize=6.636;" parent="1" edge="1">
          <mxGeometry width="50" height="50" relative="1" as="geometry">
            <mxPoint x="229.94" y="445" as="sourcePoint" />
            <mxPoint x="199.94" y="395" as="targetPoint" />
          </mxGeometry>
        </mxCell>
        <mxCell id="fuUNGOUVX03Lq7VuXDxl-37" value="" style="shape=flexArrow;endArrow=classic;html=1;rounded=0;width=0.4;endSize=6.636;" parent="1" edge="1">
          <mxGeometry width="50" height="50" relative="1" as="geometry">
            <mxPoint x="169.94" y="475" as="sourcePoint" />
            <mxPoint x="179.94" y="395" as="targetPoint" />
          </mxGeometry>
        </mxCell>
        <mxCell id="EATOOGlveNQWPZ2u_C5z-2" style="rounded=0;orthogonalLoop=1;jettySize=auto;html=1;entryX=1;entryY=0.5;entryDx=0;entryDy=0;dashed=1;dashPattern=1 4;exitX=-0.028;exitY=0.684;exitDx=0;exitDy=0;exitPerimeter=0;" edge="1" parent="1" source="fuUNGOUVX03Lq7VuXDxl-7" target="fuUNGOUVX03Lq7VuXDxl-20">
          <mxGeometry relative="1" as="geometry">
            <mxPoint x="603.94" y="330" as="sourcePoint" />
            <mxPoint x="360.94" y="331" as="targetPoint" />
          </mxGeometry>
        </mxCell>
        <mxCell id="EATOOGlveNQWPZ2u_C5z-3" value="&lt;font style=&quot;font-size: 10px;&quot;&gt;&amp;lt;&amp;lt;&lt;/font&gt;&lt;span style=&quot;font-size: 10px; background-color: initial;&quot;&gt;extends&amp;gt;&amp;gt;&lt;/span&gt;" style="text;html=1;align=center;verticalAlign=middle;resizable=0;points=[];autosize=1;strokeColor=none;fillColor=none;rotation=-15;" vertex="1" parent="1">
          <mxGeometry x="429.94" y="365" width="80" height="30" as="geometry" />
        </mxCell>
        <mxCell id="EATOOGlveNQWPZ2u_C5z-5" value="Consultar informações" style="ellipse;whiteSpace=wrap;html=1;" vertex="1" parent="1">
          <mxGeometry x="50" y="90" width="80" height="50" as="geometry" />
        </mxCell>
        <mxCell id="EATOOGlveNQWPZ2u_C5z-6" value="Atualizar informações" style="ellipse;whiteSpace=wrap;html=1;" vertex="1" parent="1">
          <mxGeometry x="149.94" y="40" width="80" height="50" as="geometry" />
        </mxCell>
        <mxCell id="EATOOGlveNQWPZ2u_C5z-7" value="Deletar informações" style="ellipse;whiteSpace=wrap;html=1;" vertex="1" parent="1">
          <mxGeometry x="259.94" y="90" width="80" height="50" as="geometry" />
        </mxCell>
        <mxCell id="EATOOGlveNQWPZ2u_C5z-8" style="rounded=0;orthogonalLoop=1;jettySize=auto;html=1;dashed=1;dashPattern=1 4;exitX=0.5;exitY=1;exitDx=0;exitDy=0;" edge="1" parent="1" source="EATOOGlveNQWPZ2u_C5z-6" target="fuUNGOUVX03Lq7VuXDxl-24">
          <mxGeometry relative="1" as="geometry">
            <mxPoint x="604" y="330" as="sourcePoint" />
            <mxPoint x="361" y="331" as="targetPoint" />
          </mxGeometry>
        </mxCell>
        <mxCell id="EATOOGlveNQWPZ2u_C5z-9" style="rounded=0;orthogonalLoop=1;jettySize=auto;html=1;dashed=1;dashPattern=1 4;exitX=0.397;exitY=1.029;exitDx=0;exitDy=0;exitPerimeter=0;" edge="1" parent="1" source="EATOOGlveNQWPZ2u_C5z-7">
          <mxGeometry relative="1" as="geometry">
            <mxPoint x="210" y="150" as="sourcePoint" />
            <mxPoint x="210" y="190" as="targetPoint" />
          </mxGeometry>
        </mxCell>
        <mxCell id="EATOOGlveNQWPZ2u_C5z-10" style="rounded=0;orthogonalLoop=1;jettySize=auto;html=1;dashed=1;dashPattern=1 4;exitX=0.602;exitY=1.014;exitDx=0;exitDy=0;exitPerimeter=0;entryX=0.29;entryY=0.086;entryDx=0;entryDy=0;entryPerimeter=0;" edge="1" parent="1" source="EATOOGlveNQWPZ2u_C5z-5" target="fuUNGOUVX03Lq7VuXDxl-24">
          <mxGeometry relative="1" as="geometry">
            <mxPoint x="220" y="160" as="sourcePoint" />
            <mxPoint x="210" y="205" as="targetPoint" />
          </mxGeometry>
        </mxCell>
        <mxCell id="EATOOGlveNQWPZ2u_C5z-11" value="&lt;font style=&quot;font-size: 10px;&quot;&gt;&amp;lt;&amp;lt;&lt;/font&gt;&lt;span style=&quot;font-size: 10px; background-color: initial;&quot;&gt;extends&amp;gt;&amp;gt;&lt;/span&gt;" style="text;html=1;align=center;verticalAlign=middle;resizable=0;points=[];autosize=1;strokeColor=none;fillColor=none;rotation=-30;" vertex="1" parent="1">
          <mxGeometry x="224.94" y="155" width="80" height="30" as="geometry" />
        </mxCell>
        <mxCell id="EATOOGlveNQWPZ2u_C5z-12" value="&lt;font style=&quot;font-size: 10px;&quot;&gt;&amp;lt;&amp;lt;&lt;/font&gt;&lt;span style=&quot;font-size: 10px; background-color: initial;&quot;&gt;extends&amp;gt;&amp;gt;&lt;/span&gt;" style="text;html=1;align=center;verticalAlign=middle;resizable=0;points=[];autosize=1;strokeColor=none;fillColor=none;rotation=30;" vertex="1" parent="1">
          <mxGeometry x="89.94" y="155" width="80" height="30" as="geometry" />
        </mxCell>
        <mxCell id="EATOOGlveNQWPZ2u_C5z-13" value="&lt;font style=&quot;font-size: 10px;&quot;&gt;&amp;lt;&amp;lt;&lt;/font&gt;&lt;span style=&quot;font-size: 10px; background-color: initial;&quot;&gt;extends&amp;gt;&amp;gt;&lt;/span&gt;" style="text;html=1;align=center;verticalAlign=middle;resizable=0;points=[];autosize=1;strokeColor=none;fillColor=none;rotation=90;" vertex="1" parent="1">
          <mxGeometry x="160" y="120" width="80" height="30" as="geometry" />
        </mxCell>
        <mxCell id="EATOOGlveNQWPZ2u_C5z-14" value="Atualizar informações do Local" style="ellipse;whiteSpace=wrap;html=1;" vertex="1" parent="1">
          <mxGeometry x="513.94" y="210" width="80" height="50" as="geometry" />
        </mxCell>
        <mxCell id="EATOOGlveNQWPZ2u_C5z-15" value="Deletar&amp;nbsp;&lt;div&gt;Local&lt;/div&gt;" style="ellipse;whiteSpace=wrap;html=1;" vertex="1" parent="1">
          <mxGeometry x="630" y="200" width="80" height="50" as="geometry" />
        </mxCell>
      </root>
    </mxGraphModel>
  </diagram>
</mxfile>
